<svg id="Capa_1" data-name="Capa 1" xmlns="http://www.w3.org/2000/svg" viewBox="0 0 566.93 283.46"><defs><style>.cls-1{fill:#737273;}.cls-2{fill:none;stroke:#000;stroke-miterlimit:10;}.cls-3{fill:#fff;}.cls-4{fill:#39af9d;}.cls-5{fill:#e3f21e;}.cls-6{fill:#babcbb;}</style></defs><path class="cls-1" d="M262.85,159.69c-5-1-8.24-3.81-9.84-7.63-4.42,4.31-10.69,8.37-18.57,8.37-12.29,0-18.19-9.35-18.19-18.08,0-14,10.21-20.41,23.61-20.41a82.55,82.55,0,0,1,11.8.86V118c0-7.76-3.69-11-10.08-11-6.15,0-12.91,2.21-19.31,4.67-2.09-2-3.57-6-3.69-9.22,6.89-3.08,17.22-5.66,25.46-5.66,12.17,0,20.16,6.52,20.16,20.54V142.6c0,4.67.62,8.11,3.45,10.57A12.85,12.85,0,0,1,262.85,159.69ZM251.66,143V131.28c-3.69-.37-7.62-.49-11.06-.49-7.38,0-11.69,3.94-11.69,10.57,0,5,3,9,8.24,9C241.82,150.34,247.23,147.88,251.66,143Z"/><path class="cls-1" d="M308.84,108.54c-4.19,0-9.35,3.07-13.29,7.49v42.8a32.37,32.37,0,0,1-6.27.49,33.6,33.6,0,0,1-6.39-.49V98.45l.73-.86h4.8c4.8,0,6.76,2.83,7,7.75,5-4.92,11.19-8.36,17.46-8.36a14.46,14.46,0,0,1,14,9.09c5.66-5.16,12.54-9.09,19.55-9.09,10.82,0,15.86,8.6,15.86,19.3v29.51c0,4.31.37,8.24,2,11.2a13.53,13.53,0,0,1-8,2.7c-4.92,0-6.76-2.83-6.76-8.12V120.22c0-8.61-2.46-11.68-7.38-11.68-4.18,0-9.22,2.94-13.28,7.49v42.8a32.37,32.37,0,0,1-6.27.49,32.92,32.92,0,0,1-6.4-.49V120.34C316.21,111.73,313.75,108.54,308.84,108.54Z"/><path class="cls-1" d="M407.45,159.93a28.71,28.71,0,0,1-14-4.05v21.27c0,5.66-1.6,8.11-6.89,8.11h-4.92l-.74-.73V98.33l.74-.74h3.94c4.18,0,6.64,2.33,7.5,6.27a23.36,23.36,0,0,1,16.84-7.38c14,0,21.16,12.79,21.16,31.24C431.06,149.73,419.25,159.93,407.45,159.93Zm-14-44.76V145.3c3.69,2.46,8,4.43,12.29,4.43,6.89,0,12.43-7,12.43-22,0-14.63-5.29-20.54-11.2-20.54C402.53,107.18,397.24,109.64,393.43,115.17Z"/><path class="cls-1" d="M460.44,158.83a32.37,32.37,0,0,1-6.27.49,32.92,32.92,0,0,1-6.4-.49v-45c0-4.43-1.35-6.39-5.41-6.39H441a19.22,19.22,0,0,1-.61-4.55,22,22,0,0,1,.61-4.67,69.44,69.44,0,0,1,7.75-.49h1.72c6.15,0,10,4.18,10,10.94ZM445.07,75.7a15.27,15.27,0,0,1,6.76-1.47c2.21,0,5.41.61,6.76,1.47a13.88,13.88,0,0,1,1.11,5.54,13.29,13.29,0,0,1-1.11,5.41c-1.23,1-4.55,1.6-6.76,1.6-2.46,0-5.41-.62-6.76-1.6A13.29,13.29,0,0,1,444,81.24,13.47,13.47,0,0,1,445.07,75.7Z"/><path class="cls-1" d="M505.93,159.93a28.74,28.74,0,0,1-14-4.05v21.27c0,5.66-1.59,8.11-6.88,8.11h-4.92l-.74-.73V98.33l.74-.74h3.94c4.17,0,6.64,2.33,7.5,6.27a23.34,23.34,0,0,1,16.84-7.38c14,0,21.15,12.79,21.15,31.24C529.54,149.73,517.74,159.93,505.93,159.93Zm-14-44.76V145.3c3.69,2.46,8,4.43,12.3,4.43,6.89,0,12.42-7,12.42-22,0-14.63-5.29-20.54-11.19-20.54C501,107.18,495.73,109.64,491.91,115.17Z"/><path d="M61.87,196.68v-7.45h3.3a4.53,4.53,0,0,1,1.52.2,1.71,1.71,0,0,1,.82.71,2.11,2.11,0,0,1,.31,1.13,1.86,1.86,0,0,1-.51,1.33,2.5,2.5,0,0,1-1.58.69,2.51,2.51,0,0,1,.59.38,4.91,4.91,0,0,1,.82,1l1.29,2H67.19l-1-1.55c-.29-.44-.53-.79-.71-1a2.32,2.32,0,0,0-.5-.5,1.48,1.48,0,0,0-.45-.2,3.54,3.54,0,0,0-.55,0H62.86v3.3Zm1-4.16H65a3,3,0,0,0,1.06-.14,1.06,1.06,0,0,0,.58-.45,1.19,1.19,0,0,0,.2-.66,1.08,1.08,0,0,0-.39-.87,1.77,1.77,0,0,0-1.21-.34H62.86Z"/><circle class="cls-2" cx="64.68" cy="192.96" r="6.63"/><path d="M45.48,233.81H40l-1.44,3.46H36.43l6.38-15.16L49,237.27H46.83Zm-.79-2-1.92-4.85-2,4.85Z"/><path d="M56.41,227.36l-1.29.85a2.52,2.52,0,0,0-.68-.91,1.5,1.5,0,0,0-.88-.24,1.52,1.52,0,0,0-1.1.42,1.34,1.34,0,0,0-.44,1c0,.57.39,1,1.15,1.38l1,.47a4.46,4.46,0,0,1,1.87,1.4,3.35,3.35,0,0,1,.59,2,3.8,3.8,0,0,1-1,2.66,3.17,3.17,0,0,1-2.42,1,3,3,0,0,1-2.26-.9,4.26,4.26,0,0,1-1.1-2.52l1.61-.4a3.23,3.23,0,0,0,.38,1.42,1.6,1.6,0,0,0,1.43.75,1.56,1.56,0,0,0,1.23-.55,2,2,0,0,0,.49-1.39,2.45,2.45,0,0,0-.08-.62,1.72,1.72,0,0,0-.27-.52,1.94,1.94,0,0,0-.46-.44,4.84,4.84,0,0,0-.69-.4l-1-.47a3.18,3.18,0,0,1-2.16-2.95,2.92,2.92,0,0,1,.91-2.19,3.08,3.08,0,0,1,2.25-.89A3.13,3.13,0,0,1,56.41,227.36Z"/><path d="M58.21,231.4a6.05,6.05,0,0,1,1.63-4.22,5.13,5.13,0,0,1,3.9-1.76,5,5,0,0,1,3.85,1.78,6.42,6.42,0,0,1,0,8.53,5.18,5.18,0,0,1-7.59.19A6,6,0,0,1,58.21,231.4Zm1.6,0A4.4,4.4,0,0,0,61,234.59a3.56,3.56,0,0,0,2.69,1.24,3.62,3.62,0,0,0,2.79-1.26,4.84,4.84,0,0,0,0-6.23,3.64,3.64,0,0,0-5.53,0A4.4,4.4,0,0,0,59.81,231.42Z"/><path d="M79.12,226.26v2.08a4.2,4.2,0,0,0-2.85-1.28,3.47,3.47,0,0,0-2.73,1.29,4.6,4.6,0,0,0-1.12,3.14,4.47,4.47,0,0,0,1.12,3.09,3.53,3.53,0,0,0,2.74,1.25,3.1,3.1,0,0,0,1.42-.3,4.13,4.13,0,0,0,.68-.4c.23-.18.48-.38.74-.62v2.12a5.33,5.33,0,0,1-2.87.85,5,5,0,0,1-3.84-1.74,6.08,6.08,0,0,1-1.59-4.23,6.33,6.33,0,0,1,1.33-4,5.1,5.1,0,0,1,7-1.29Z"/><path d="M82.85,225.64v11.63H81.26V225.64Z"/><path d="M91.69,234.45h-4.5L86,237.27H84.31l5.2-12.36,5,12.36H92.8Zm-.64-1.65-1.56-4-1.64,4Z"/><path d="M103.27,226.26v2.08a4.2,4.2,0,0,0-2.85-1.28,3.47,3.47,0,0,0-2.73,1.29,4.64,4.64,0,0,0-1.12,3.14,4.52,4.52,0,0,0,1.12,3.09,3.56,3.56,0,0,0,2.74,1.25,3.07,3.07,0,0,0,1.42-.3,3.76,3.76,0,0,0,.68-.4,9.36,9.36,0,0,0,.74-.62v2.12a5.29,5.29,0,0,1-2.86.85,5,5,0,0,1-3.85-1.74A6.08,6.08,0,0,1,95,231.51a6.39,6.39,0,0,1,1.33-4,5.1,5.1,0,0,1,7-1.29Z"/><path d="M107,225.64v11.63h-1.59V225.64Z"/><path d="M109.14,231.4a6.05,6.05,0,0,1,1.63-4.22,5.13,5.13,0,0,1,3.9-1.76,5,5,0,0,1,3.85,1.78,6.42,6.42,0,0,1,0,8.53,5.18,5.18,0,0,1-7.59.19A6,6,0,0,1,109.14,231.4Zm1.6,0a4.4,4.4,0,0,0,1.18,3.17,3.56,3.56,0,0,0,2.69,1.24,3.62,3.62,0,0,0,2.79-1.26,4.84,4.84,0,0,0,0-6.23,3.51,3.51,0,0,0-2.76-1.27,3.58,3.58,0,0,0-2.78,1.27A4.43,4.43,0,0,0,110.74,231.42Z"/><path d="M122.27,237.27V224.85l7.67,8.87v-8.08h1.59V238l-7.67-8.85v8.14Z"/><path d="M139.48,237.27l2.71-15.34L146.62,233l4.59-11.09,2.44,15.34h-2l-1.24-8.61-3.82,9.27-3.71-9.28-1.39,8.62Z"/><path d="M162.07,227.29h-4.22v2.79H162v1.65h-4.1v3.89h4.22v1.65h-5.8V225.64h5.8Z"/><path d="M166.49,231.19l-2.89-5.55h1.8l2,3.94,2.11-3.94h1.82l-3,5.55,3.18,6.08h-1.78l-2.33-4.45L165,237.27h-1.8Z"/><path d="M174.64,225.64v11.63h-1.59V225.64Z"/><path d="M185.08,226.26v2.08a4.2,4.2,0,0,0-2.85-1.28,3.47,3.47,0,0,0-2.73,1.29,4.6,4.6,0,0,0-1.12,3.14,4.47,4.47,0,0,0,1.12,3.09,3.54,3.54,0,0,0,2.74,1.25,3.1,3.1,0,0,0,1.42-.3,4.13,4.13,0,0,0,.68-.4c.23-.18.48-.38.74-.62v2.12a5.29,5.29,0,0,1-2.86.85,5,5,0,0,1-3.85-1.74,6.08,6.08,0,0,1-1.59-4.23,6.33,6.33,0,0,1,1.33-4,5.1,5.1,0,0,1,7-1.29Z"/><path d="M193.65,234.45h-4.5L188,237.27h-1.71l5.2-12.36,5,12.36h-1.74ZM193,232.8l-1.56-4-1.63,4Z"/><path d="M198,237.27V224.85l7.67,8.87v-8.08h1.59V238l-7.68-8.85v8.14Z"/><path d="M216.13,234.45h-4.51l-1.17,2.82h-1.71L214,224.91l5,12.36h-1.74Zm-.65-1.65-1.56-4-1.64,4Z"/><path d="M225.87,237.27V225.64h2.21a7.37,7.37,0,0,1,2.51.35,4.65,4.65,0,0,1,1.79,1.15,6.46,6.46,0,0,1-.07,8.66,5,5,0,0,1-1.78,1.15,7.64,7.64,0,0,1-2.48.32Zm1.59-1.65h.71a5.29,5.29,0,0,0,1.78-.25,3.49,3.49,0,0,0,1.28-.83,4.21,4.21,0,0,0,1.18-3.08,4.29,4.29,0,0,0-1.16-3.11,4.13,4.13,0,0,0-3.08-1.06h-.71Z"/><path d="M242,227.29h-4.22v2.79h4.09v1.65h-4.09v3.89H242v1.65h-5.81V225.64H242Z"/><path d="M251.85,231.48v5.79h-1.94V223h2.2a8.89,8.89,0,0,1,2.45.25,3.15,3.15,0,0,1,1.47.94,4.29,4.29,0,0,1,1.11,3,4.09,4.09,0,0,1-1.18,3.1,4.41,4.41,0,0,1-3.2,1.15Zm0-2h.73c1.79,0,2.68-.76,2.68-2.28s-.92-2.21-2.76-2.21h-.65Z"/><path d="M265.21,234.45h-4.5l-1.17,2.82h-1.71l5.2-12.36,5,12.36h-1.74Zm-.65-1.65-1.55-4-1.64,4Z"/><path d="M273.07,232.31l3.26,5h-1.95l-3-4.76h-.29v4.76h-1.58V225.64h1.86a4.31,4.31,0,0,1,3,.87,3.33,3.33,0,0,1,1,2.54,3.54,3.54,0,0,1-.64,2.13A2.81,2.81,0,0,1,273.07,232.31Zm-2-1.33h.51c1.5,0,2.25-.63,2.25-1.9s-.73-1.79-2.19-1.79h-.57Z"/><path d="M288.75,237.48h-2l-.82-.93a5,5,0,0,1-2.93.93,5.2,5.2,0,0,1-3.71-1.56,5.89,5.89,0,0,1-1.77-4.41,6.14,6.14,0,0,1,1.67-4.39,5.12,5.12,0,0,1,7.42-.21,6.15,6.15,0,0,1,1.91,4.68,6,6,0,0,1-1.51,4Zm-4.37-4.82,1.53,1.68a4.23,4.23,0,0,0,1-2.87,4.54,4.54,0,0,0-1.13-3.13,3.57,3.57,0,0,0-2.79-1.27,3.49,3.49,0,0,0-2.78,1.27,4.66,4.66,0,0,0-1.1,3.18,4.33,4.33,0,0,0,1.13,3.08,3.66,3.66,0,0,0,2.7,1.23,3.43,3.43,0,0,0,1.86-.52l-2.48-2.65Z"/><path d="M292.24,225.64v7a4.23,4.23,0,0,0,.44,2.19,2.24,2.24,0,0,0,3.73,0,4.13,4.13,0,0,0,.44-2.19v-7h1.59v7.49a4.48,4.48,0,0,1-1,3,3.75,3.75,0,0,1-5.71,0,4.48,4.48,0,0,1-1-3v-7.49Z"/><path d="M306.9,227.29h-4.21v2.79h4.09v1.65h-4.09v3.89h4.21v1.65h-5.8V225.64h5.8Z"/><path d="M315.08,227.36l-1.29.85a2.41,2.41,0,0,0-.69-.91,1.5,1.5,0,0,0-.88-.24,1.54,1.54,0,0,0-1.1.42,1.33,1.33,0,0,0-.43,1q0,.85,1.14,1.38l1.05.47a4.5,4.5,0,0,1,1.88,1.4,3.42,3.42,0,0,1,.59,2,3.76,3.76,0,0,1-1,2.66,3.16,3.16,0,0,1-2.42,1,3.06,3.06,0,0,1-2.26-.9,4.39,4.39,0,0,1-1.1-2.52l1.61-.4a3.23,3.23,0,0,0,.38,1.42,1.61,1.61,0,0,0,1.43.75,1.58,1.58,0,0,0,1.24-.55,2,2,0,0,0,.49-1.39,2.06,2.06,0,0,0-.09-.62,1.5,1.5,0,0,0-.26-.52,2,2,0,0,0-.47-.44,4.7,4.7,0,0,0-.68-.4l-1-.47a3.19,3.19,0,0,1-2.16-2.95,3,3,0,0,1,.91-2.19,3.11,3.11,0,0,1,2.26-.89A3.14,3.14,0,0,1,315.08,227.36Z"/><path d="M325.08,223v14.26h-1.94V223Z"/><path d="M328.07,237.27V224.85l7.67,8.87v-8.08h1.59V238l-7.67-8.85v8.14Z"/><path d="M340,237.27V225.64h2.21a7.31,7.31,0,0,1,2.5.35,4.51,4.51,0,0,1,1.79,1.15,6.48,6.48,0,0,1-.06,8.66,5,5,0,0,1-1.79,1.15,7.53,7.53,0,0,1-2.47.32Zm1.59-1.65h.71a5.33,5.33,0,0,0,1.78-.25,3.49,3.49,0,0,0,1.28-.83,4.2,4.2,0,0,0,1.17-3.08,4.29,4.29,0,0,0-1.16-3.11,4.1,4.1,0,0,0-3.07-1.06h-.71Z"/><path d="M351.85,225.64v7a4.13,4.13,0,0,0,.44,2.19,2.1,2.1,0,0,0,1.86,1,2.12,2.12,0,0,0,1.87-1,4.13,4.13,0,0,0,.44-2.19v-7h1.59v7.49a4.48,4.48,0,0,1-1,3,3.76,3.76,0,0,1-5.72,0,4.47,4.47,0,0,1-1-3v-7.49Z"/><path d="M366.65,227.36l-1.29.85a2.41,2.41,0,0,0-.68-.91,1.5,1.5,0,0,0-.88-.24,1.52,1.52,0,0,0-1.1.42,1.33,1.33,0,0,0-.43,1q0,.85,1.14,1.38l1,.47a4.46,4.46,0,0,1,1.87,1.4,3.36,3.36,0,0,1,.6,2,3.8,3.8,0,0,1-1,2.66,3.17,3.17,0,0,1-2.42,1,3,3,0,0,1-2.26-.9,4.32,4.32,0,0,1-1.1-2.52l1.61-.4a3.23,3.23,0,0,0,.38,1.42,1.6,1.6,0,0,0,1.43.75,1.55,1.55,0,0,0,1.23-.55,2,2,0,0,0,.5-1.39,2.06,2.06,0,0,0-.09-.62,1.72,1.72,0,0,0-.27-.52,1.94,1.94,0,0,0-.46-.44,4.7,4.7,0,0,0-.68-.4l-1-.47a3.18,3.18,0,0,1-2.16-2.95,2.92,2.92,0,0,1,.91-2.19,3.08,3.08,0,0,1,2.25-.89A3.13,3.13,0,0,1,366.65,227.36Z"/><path d="M372.08,227.29v10h-1.59v-10h-2.42v-1.65h6.42v1.65Z"/><path d="M379.61,232.31l3.26,5h-1.95l-3-4.76h-.29v4.76h-1.58V225.64h1.86a4.31,4.31,0,0,1,3,.87,3.33,3.33,0,0,1,1,2.54,3.54,3.54,0,0,1-.64,2.13A2.81,2.81,0,0,1,379.61,232.31Zm-2-1.33h.51c1.5,0,2.25-.63,2.25-1.9s-.73-1.79-2.19-1.79h-.57Z"/><path d="M386.17,225.64v11.63h-1.58V225.64Z"/><path d="M395,234.45h-4.5l-1.17,2.82h-1.72l5.21-12.36,5,12.36h-1.74Zm-.65-1.65-1.56-4-1.63,4Z"/><path d="M400.9,225.64v10H404v1.65h-4.68V225.64Z"/><path d="M411.45,227.29h-4.22v2.79h4.09v1.65h-4.09v3.89h4.22v1.65h-5.81V225.64h5.81Z"/><path d="M419.62,227.36l-1.29.85a2.41,2.41,0,0,0-.69-.91,1.5,1.5,0,0,0-.88-.24,1.54,1.54,0,0,0-1.1.42,1.33,1.33,0,0,0-.43,1q0,.85,1.14,1.38l1.05.47a4.5,4.5,0,0,1,1.88,1.4,3.42,3.42,0,0,1,.59,2,3.76,3.76,0,0,1-1,2.66,3.16,3.16,0,0,1-2.42,1,3.06,3.06,0,0,1-2.26-.9,4.39,4.39,0,0,1-1.1-2.52l1.61-.4a3.23,3.23,0,0,0,.38,1.42,1.61,1.61,0,0,0,1.43.75,1.58,1.58,0,0,0,1.24-.55,2,2,0,0,0,.49-1.39,2.06,2.06,0,0,0-.09-.62,1.5,1.5,0,0,0-.26-.52,2,2,0,0,0-.47-.44,4.7,4.7,0,0,0-.68-.4l-1-.47a3.19,3.19,0,0,1-2.16-2.95,3,3,0,0,1,.91-2.19,3.11,3.11,0,0,1,2.26-.89A3.14,3.14,0,0,1,419.62,227.36Z"/><path d="M429.62,231.48v5.79h-1.94V223h2.2a8.89,8.89,0,0,1,2.45.25,3.15,3.15,0,0,1,1.47.94,4.29,4.29,0,0,1,1.11,3,4.09,4.09,0,0,1-1.18,3.1,4.39,4.39,0,0,1-3.2,1.15Zm0-2h.73c1.79,0,2.68-.76,2.68-2.28s-.92-2.21-2.76-2.21h-.65Z"/><path d="M440.37,232.31l3.25,5h-1.94l-3-4.76h-.29v4.76H436.8V225.64h1.86a4.34,4.34,0,0,1,3,.87,3.33,3.33,0,0,1,1,2.54,3.6,3.6,0,0,1-.64,2.13A2.81,2.81,0,0,1,440.37,232.31Zm-2-1.33h.5c1.51,0,2.26-.63,2.26-1.9s-.73-1.79-2.19-1.79h-.57Z"/><path d="M446.93,225.64v11.63h-1.58V225.64Z"/><path d="M450.13,225.64,453,233.7l2.95-8.06h1.74L453,238.15l-4.61-12.51Z"/><path d="M464.47,234.45H460l-1.17,2.82h-1.71l5.2-12.36,5,12.36h-1.73Zm-.64-1.65-1.56-4-1.64,4Z"/><path d="M468.77,237.27V225.64H471a7.31,7.31,0,0,1,2.5.35,4.61,4.61,0,0,1,1.8,1.15,6.49,6.49,0,0,1-.07,8.66,5,5,0,0,1-1.79,1.15,7.53,7.53,0,0,1-2.47.32Zm1.59-1.65h.71a5.33,5.33,0,0,0,1.78-.25,3.49,3.49,0,0,0,1.28-.83,4.2,4.2,0,0,0,1.17-3.08,4.25,4.25,0,0,0-1.16-3.11,4.1,4.1,0,0,0-3.07-1.06h-.71Z"/><path d="M478.51,231.4a6.05,6.05,0,0,1,1.63-4.22,5.13,5.13,0,0,1,3.9-1.76,5,5,0,0,1,3.85,1.78,6.42,6.42,0,0,1,0,8.53,5.18,5.18,0,0,1-7.59.19A6,6,0,0,1,478.51,231.4Zm1.6,0a4.4,4.4,0,0,0,1.18,3.17,3.56,3.56,0,0,0,2.69,1.24,3.62,3.62,0,0,0,2.79-1.26,4.84,4.84,0,0,0,0-6.23,3.64,3.64,0,0,0-5.53,0A4.4,4.4,0,0,0,480.11,231.42Z"/><path d="M497.59,227.36l-1.29.85a2.41,2.41,0,0,0-.68-.91,1.5,1.5,0,0,0-.88-.24,1.52,1.52,0,0,0-1.1.42,1.33,1.33,0,0,0-.43,1q0,.85,1.14,1.38l1,.47a4.46,4.46,0,0,1,1.87,1.4,3.36,3.36,0,0,1,.6,2,3.8,3.8,0,0,1-1,2.66,3.17,3.17,0,0,1-2.42,1,3,3,0,0,1-2.26-.9,4.32,4.32,0,0,1-1.1-2.52l1.61-.4a3.23,3.23,0,0,0,.38,1.42,1.6,1.6,0,0,0,1.43.75,1.55,1.55,0,0,0,1.23-.55,2,2,0,0,0,.5-1.39,2.06,2.06,0,0,0-.09-.62,1.72,1.72,0,0,0-.27-.52,1.94,1.94,0,0,0-.46-.44,4.7,4.7,0,0,0-.68-.4l-1-.47a3.18,3.18,0,0,1-2.16-2.95,2.92,2.92,0,0,1,.91-2.19,3.08,3.08,0,0,1,2.25-.89A3.13,3.13,0,0,1,497.59,227.36Z"/><path d="M501,234.6l1.67.72-2.38,5.28L499,240Z"/><path d="M518.68,233.81h-5.52l-1.43,3.46h-2.1L516,222.11l6.16,15.16H520Zm-.79-2L516,226.93l-2,4.85Z"/><path d="M524.52,236.24a1.28,1.28,0,0,1,.34-.9,1.07,1.07,0,0,1,1.64,0,1.39,1.39,0,0,1,0,1.82,1.05,1.05,0,0,1-.82.37,1.07,1.07,0,0,1-.83-.37A1.31,1.31,0,0,1,524.52,236.24Z"/><path d="M539.57,223.77v2.54a5.14,5.14,0,0,0-3.49-1.56,4.25,4.25,0,0,0-3.35,1.58,5.62,5.62,0,0,0-1.37,3.85,5.45,5.45,0,0,0,1.37,3.78,4.32,4.32,0,0,0,3.36,1.55,3.85,3.85,0,0,0,1.74-.37,4.36,4.36,0,0,0,.83-.5,9.38,9.38,0,0,0,.91-.76v2.6a6.5,6.5,0,0,1-3.51,1.05,6.18,6.18,0,0,1-4.72-2.13,7.48,7.48,0,0,1-2-5.2,7.87,7.87,0,0,1,1.63-4.86,6.26,6.26,0,0,1,5.19-2.61A6.16,6.16,0,0,1,539.57,223.77Z"/><path d="M542.13,236.24a1.32,1.32,0,0,1,.34-.9,1.07,1.07,0,0,1,1.64,0,1.39,1.39,0,0,1,0,1.82,1.05,1.05,0,0,1-.82.37,1,1,0,0,1-.82-.37A1.28,1.28,0,0,1,542.13,236.24Z"/><path d="M118.57,220.62l-2.77,2.47-.94-.57,2.1-2.72Z"/><path class="cls-3" d="M202.77,122.05a78.59,78.59,0,1,1-78.59-78.6c1.24,0,2.54-.84,3.77-.79C169.63,44.6,202.77,79.88,202.77,122.05Z"/><path class="cls-4" d="M116.94,200.21h0c27.31-13.49,43.85-51.48,38.29-93.44-3.4-25.68-14.44-47.75-29.34-62.38l-1.69-1.85h0a79,79,0,0,0-7.21,157.67Z"/><path class="cls-4" d="M133,43c20.06,10.34,37.89,31.7,47,59.42,9.48,28.82,7.28,57.69-3.81,78.08l.82-.27A79,79,0,0,0,133,43Z"/><path class="cls-5" d="M117.08,42.86c3.78,12.42,3.9,26.87-.29,41.87C107.49,118,79.93,139.4,55.22,132.5a35,35,0,0,1-10.07-4.65,78.7,78.7,0,0,0,7,26.67A40.2,40.2,0,0,0,74,167.11c28.51,5.54,58.08-23.12,66-64,4.45-22.89,1-44.27-7.72-60.06a76.48,76.48,0,0,0-8.06-.5C121.77,42.54,119.45,42.64,117.08,42.86Z"/><path class="cls-6" d="M142.37,108C113.91,83.85,77.74,77.25,51.79,89a78.94,78.94,0,0,0-6.9,31.17h0c0,.41,0,.81,0,1.22,0,2.17.12,4.31.29,6.45a35.25,35.25,0,0,0,10.07,4.64l.06,0a10,10,0,0,1-2.85-6.35c-.31-5.51,5.1-11.93,13.09-12,4.27-.08,32.69-2.77,54.71,6.51,29.65,12.5,49.89,36.47,55,61.37.88-.74,1.75-1.5,2.59-2.28C178.49,155.34,166,128.1,142.37,108Z"/></svg>